<svg width="20" height="20" viewBox="0 0 20 20" fill="none" xmlns="http://www.w3.org/2000/svg">
<path d="M10 19.51L8.55 18.1278C6.86667 16.5153 5.475 15.1242 4.375 13.9547C3.275 12.7851 2.4 11.7352 1.75 10.8049C1.1 9.8746 0.645833 9.0196 0.3875 8.23991C0.129167 7.46022 0 6.66281 0 5.84768C0 4.18197 0.525 2.79094 1.575 1.67456C2.625 0.558187 3.93333 0 5.5 0C6.36667 0 7.19167 0.194923 7.975 0.584768C8.75833 0.974613 9.43333 1.52394 10 2.23275C10.5667 1.52394 11.2417 0.974613 12.025 0.584768C12.8083 0.194923 13.6333 0 14.5 0C16.0667 0 17.375 0.558187 18.425 1.67456C19.475 2.79094 20 4.18197 20 5.84768C20 6.66281 19.8708 7.46022 19.6125 8.23991C19.3542 9.0196 18.9 9.8746 18.25 10.8049C17.6 11.7352 16.725 12.7851 15.625 13.9547C14.525 15.1242 13.1333 16.5153 11.45 18.1278L10 19.51ZM10 16.6393C11.6 15.1154 12.9167 13.8085 13.95 12.7187C14.9833 11.6289 15.8 10.6809 16.4 9.8746C17 9.06833 17.4167 8.35066 17.65 7.72159C17.8833 7.09252 18 6.46788 18 5.84768C18 4.78446 17.6667 3.89845 17 3.18964C16.3333 2.48083 15.5 2.12643 14.5 2.12643C13.7167 2.12643 12.9917 2.36122 12.325 2.83081C11.6583 3.30039 11.2 3.89845 10.95 4.62498H9.05C8.8 3.89845 8.34167 3.30039 7.675 2.83081C7.00833 2.36122 6.28333 2.12643 5.5 2.12643C4.5 2.12643 3.66667 2.48083 3 3.18964C2.33333 3.89845 2 4.78446 2 5.84768C2 6.46788 2.11667 7.09252 2.35 7.72159C2.58333 8.35066 3 9.06833 3.6 9.8746C4.2 10.6809 5.01667 11.6289 6.05 12.7187C7.08333 13.8085 8.4 15.1154 10 16.6393Z" fill="#2ABB71"/>
</svg>
