<svg width="20" height="22" viewBox="0 0 20 22" fill="none" xmlns="http://www.w3.org/2000/svg">
<g clip-path="url(#clip0_611_5603)">
<path d="M10 15.39C11.65 13.9724 12.8958 12.6079 13.7375 11.2966C14.5792 9.98535 15 8.75379 15 7.60198C15 6.60965 14.8292 5.7635 14.4875 5.06356C14.1458 4.36361 13.725 3.79656 13.225 3.36241C12.725 2.92827 12.1833 2.61373 11.6 2.41881C11.0167 2.22389 10.4833 2.12643 10 2.12643C9.51667 2.12643 8.98333 2.22389 8.4 2.41881C7.81667 2.61373 7.275 2.92827 6.775 3.36241C6.275 3.79656 5.85417 4.36361 5.5125 5.06356C5.17083 5.7635 5 6.60965 5 7.60198C5 8.75379 5.42083 9.98535 6.2625 11.2966C7.10417 12.6079 8.35 13.9724 10 15.39ZM10 18.0746C7.65 16.2317 5.89583 14.442 4.7375 12.7054C3.57917 10.9688 3 9.26768 3 7.60198C3 6.34384 3.2125 5.24076 3.6375 4.29273C4.0625 3.34469 4.60833 2.55171 5.275 1.91378C5.94167 1.27586 6.69167 0.79741 7.525 0.478446C8.35833 0.159482 9.18333 0 10 0C10.8167 0 11.6417 0.159482 12.475 0.478446C13.3083 0.79741 14.0583 1.27586 14.725 1.91378C15.3917 2.55171 15.9375 3.34469 16.3625 4.29273C16.7875 5.24076 17 6.34384 17 7.60198C17 9.26768 16.4208 10.9688 15.2625 12.7054C14.1042 14.442 12.35 16.2317 10 18.0746ZM10 9.56892C10.55 9.56892 11.0208 9.36071 11.4125 8.94429C11.8042 8.52786 12 8.02726 12 7.4425C12 6.85773 11.8042 6.35713 11.4125 5.94071C11.0208 5.52428 10.55 5.31607 10 5.31607C9.45 5.31607 8.97917 5.52428 8.5875 5.94071C8.19583 6.35713 8 6.85773 8 7.4425C8 8.02726 8.19583 8.52786 8.5875 8.94429C8.97917 9.36071 9.45 9.56892 10 9.56892ZM3 21.2643V19.1378H17V21.2643H3Z" fill="#2ABB71"/>
</g>
<defs>
<clipPath id="clip0_611_5603">
<rect width="20" height="21.26" fill="white"/>
</clipPath>
</defs>
</svg>
