<svg width="20" height="21" viewBox="0 0 20 21" fill="none" xmlns="http://www.w3.org/2000/svg">
<path d="M2 20.2011C1.45 20.2011 0.979167 19.9928 0.5875 19.5764C0.195833 19.16 0 18.6594 0 18.0746V6.37928C0 5.79451 0.195833 5.29392 0.5875 4.87749C0.979167 4.46107 1.45 4.25285 2 4.25285H6V2.12643C6 1.54166 6.19583 1.04106 6.5875 0.624638C6.97917 0.208213 7.45 0 8 0H12C12.55 0 13.0208 0.208213 13.4125 0.624638C13.8042 1.04106 14 1.54166 14 2.12643V4.25285H18C18.55 4.25285 19.0208 4.46107 19.4125 4.87749C19.8042 5.29392 20 5.79451 20 6.37928V18.0746C20 18.6594 19.8042 19.16 19.4125 19.5764C19.0208 19.9928 18.55 20.2011 18 20.2011H2ZM8 4.25285H12V2.12643H8V4.25285ZM18 13.8218H13V15.9482H7V13.8218H2V18.0746H18V13.8218ZM9 13.8218H11V11.6954H9V13.8218ZM2 11.6954H7V9.56892H13V11.6954H18V6.37928H2V11.6954Z" fill="#2ABB71"/>
</svg>
