<svg width="69" height="69" viewBox="0 0 69 69" fill="none" xmlns="http://www.w3.org/2000/svg">
<rect width="69" height="69" rx="34.5" fill="#1C1D1C"/>
<mask id="mask0_585_4036" style="mask-type:alpha" maskUnits="userSpaceOnUse" x="11" y="11" width="47" height="47">
<rect x="11.25" y="11.25" width="46.5" height="46.5" rx="1" fill="#D9D9D9"/>
</mask>
<g mask="url(#mask0_585_4036)">
<path d="M24.3571 47.3554C23.9666 47.7459 23.3334 47.7459 22.9429 47.3554L21.6446 46.0571C21.2541 45.6666 21.2541 45.0334 21.6446 44.6429L31.0804 35.2071C31.4709 34.8166 31.4709 34.1834 31.0804 33.7929L21.6446 24.3571C21.2541 23.9666 21.2541 23.3334 21.6446 22.9429L22.9429 21.6446C23.3334 21.2541 23.9666 21.2541 24.3571 21.6446L33.7929 31.0804C34.1834 31.4709 34.8166 31.4709 35.2071 31.0804L44.6429 21.6446C45.0334 21.2541 45.6666 21.2541 46.0571 21.6446L47.3554 22.9429C47.7459 23.3334 47.7459 23.9666 47.3554 24.3571L37.9196 33.7929C37.5291 34.1834 37.5291 34.8166 37.9196 35.2071L47.3554 44.6429C47.7459 45.0334 47.7459 45.6666 47.3554 46.0571L46.0571 47.3554C45.6666 47.7459 45.0334 47.7459 44.6429 47.3554L35.2071 37.9196C34.8166 37.5291 34.1834 37.5291 33.7929 37.9196L24.3571 47.3554Z" fill="#2ABB71"/>
</g>
</svg>
