<svg width="69" height="69" viewBox="0 0 69 69" fill="none" xmlns="http://www.w3.org/2000/svg">
<rect width="69" height="69" rx="34.5" fill="#2ABB71"/>
<mask id="mask0_585_4040" style="mask-type:alpha" maskUnits="userSpaceOnUse" x="11" y="11" width="47" height="47">
<rect x="11.25" y="11.25" width="46.5" height="46.5" rx="1" fill="#D9D9D9"/>
</mask>
<g mask="url(#mask0_585_4040)">
<path d="M30.4598 45.418C30.0693 45.8085 29.4362 45.8085 29.0456 45.418L19.4161 35.7885C19.0256 35.3979 19.0256 34.7648 19.4161 34.3742L20.7628 33.0275C21.1533 32.637 21.7865 32.637 22.177 33.0275L29.0456 39.8961C29.4362 40.2866 30.0693 40.2866 30.4598 39.8961L46.8222 23.5338C47.2127 23.1432 47.8459 23.1432 48.2364 23.5338L49.5831 24.8805C49.9737 25.271 49.9737 25.9042 49.5831 26.2947L30.4598 45.418Z" fill="#1C1D1C"/>
</g>
</svg>
