<svg width="42" height="42" viewBox="0 0 42 42" fill="none" xmlns="http://www.w3.org/2000/svg">
<rect width="42" height="42" rx="21" fill="#2ABB71"/>
<path d="M14.888 29.5V27.868L21.728 21.268C22.336 20.692 22.784 20.188 23.072 19.756C23.376 19.308 23.576 18.9 23.672 18.532C23.784 18.148 23.84 17.78 23.84 17.428C23.84 16.564 23.536 15.884 22.928 15.388C22.32 14.892 21.432 14.644 20.264 14.644C19.368 14.644 18.56 14.796 17.84 15.1C17.12 15.388 16.496 15.844 15.968 16.468L14.336 15.052C14.976 14.236 15.832 13.612 16.904 13.18C17.992 12.732 19.184 12.508 20.48 12.508C21.648 12.508 22.664 12.7 23.528 13.084C24.392 13.452 25.056 13.988 25.52 14.692C26 15.396 26.24 16.228 26.24 17.188C26.24 17.732 26.168 18.268 26.024 18.796C25.88 19.324 25.608 19.884 25.208 20.476C24.808 21.068 24.232 21.732 23.48 22.468L17.384 28.348L16.808 27.412H26.96V29.5H14.888Z" fill="#202123"/>
</svg>
