<svg width="42" height="42" viewBox="0 0 42 42" fill="none" xmlns="http://www.w3.org/2000/svg">
<rect width="42" height="42" rx="21" fill="#2ABB71"/>
<path d="M20.288 29.692C19.104 29.692 17.952 29.508 16.832 29.14C15.728 28.772 14.824 28.276 14.12 27.652L15.224 25.756C15.784 26.284 16.512 26.716 17.408 27.052C18.304 27.388 19.264 27.556 20.288 27.556C21.536 27.556 22.504 27.292 23.192 26.764C23.896 26.22 24.248 25.492 24.248 24.58C24.248 23.7 23.912 22.996 23.24 22.468C22.584 21.924 21.536 21.652 20.096 21.652H18.752V19.972L23.744 13.828L24.08 14.788H14.888V12.7H25.976V14.332L21.008 20.452L19.76 19.708H20.552C22.584 19.708 24.104 20.164 25.112 21.076C26.136 21.988 26.648 23.148 26.648 24.556C26.648 25.5 26.416 26.364 25.952 27.148C25.488 27.932 24.784 28.556 23.84 29.02C22.912 29.468 21.728 29.692 20.288 29.692Z" fill="#202123"/>
</svg>
