<svg width="190" height="190" viewBox="0 0 190 190" fill="none" xmlns="http://www.w3.org/2000/svg">
<mask id="mask0_481_1155" style="mask-type:alpha" maskUnits="userSpaceOnUse" x="0" y="0" width="190" height="190">
<rect width="190" height="190" fill="#D9D9D9"/>
</mask>
<g mask="url(#mask0_481_1155)">
<path d="M45.1263 142.5L63.3346 110.833C54.6263 110.833 47.1714 107.733 40.9701 101.531C34.7687 95.3299 31.668 87.875 31.668 79.1667C31.668 70.4583 34.7687 63.0035 40.9701 56.8021C47.1714 50.6007 54.6263 47.5 63.3346 47.5C72.043 47.5 79.4978 50.6007 85.6992 56.8021C91.9006 63.0035 95.0013 70.4583 95.0013 79.1667C95.0013 82.2014 94.6385 85.0052 93.9128 87.5781C93.1871 90.151 92.0985 92.625 90.6471 95L63.3346 142.5H45.1263ZM116.376 142.5L134.585 110.833C125.876 110.833 118.421 107.733 112.22 101.531C106.019 95.3299 102.918 87.875 102.918 79.1667C102.918 70.4583 106.019 63.0035 112.22 56.8021C118.421 50.6007 125.876 47.5 134.585 47.5C143.293 47.5 150.748 50.6007 156.949 56.8021C163.151 63.0035 166.251 70.4583 166.251 79.1667C166.251 82.2014 165.888 85.0052 165.163 87.5781C164.437 90.151 163.349 92.625 161.897 95L134.585 142.5H116.376Z" fill="#E0BE36"/>
</g>
</svg>
