<svg width="12" height="19" viewBox="0 0 12 19" fill="none" xmlns="http://www.w3.org/2000/svg">
<path d="M6.86816 0.998779C6.86816 0.584566 6.53238 0.248779 6.11816 0.248779C5.70395 0.248779 5.36816 0.584566 5.36816 0.998779L6.86816 0.998779ZM5.58783 13.5291C5.88073 13.822 6.3556 13.822 6.64849 13.5291L11.4215 8.75614C11.7144 8.46325 11.7144 7.98837 11.4215 7.69548C11.1286 7.40259 10.6537 7.40259 10.3608 7.69548L6.11816 11.9381L1.87552 7.69548C1.58263 7.40259 1.10776 7.40259 0.814863 7.69548C0.52197 7.98837 0.52197 8.46325 0.814863 8.75614L5.58783 13.5291ZM5.36816 0.998779L5.36816 12.9988L6.86816 12.9988L6.86816 0.998779L5.36816 0.998779Z" fill="#B0AD9F"/>
<rect x="1" y="17" width="10" height="1.5" rx="0.75" fill="#B0AD9F"/>
</svg>
