<svg width="14" height="21" viewBox="0 0 14 21" fill="none" xmlns="http://www.w3.org/2000/svg">
<line x1="0.75" y1="20.25" x2="13.25" y2="20.25" stroke="#202123" stroke-width="1.5" stroke-linecap="round"/>
<path d="M7.75 1C7.75 0.585786 7.41421 0.25 7 0.25C6.58579 0.25 6.25 0.585786 6.25 1L7.75 1ZM6.46967 15.5303C6.76256 15.8232 7.23744 15.8232 7.53033 15.5303L12.3033 10.7574C12.5962 10.4645 12.5962 9.98959 12.3033 9.6967C12.0104 9.40381 11.5355 9.40381 11.2426 9.6967L7 13.9393L2.75736 9.6967C2.46447 9.40381 1.98959 9.40381 1.6967 9.6967C1.40381 9.98959 1.40381 10.4645 1.6967 10.7574L6.46967 15.5303ZM6.25 1L6.25 15L7.75 15L7.75 1L6.25 1Z" fill="#202123"/>
</svg>
